
<?xml version="1.0" standalone="no"?>
<!DOCTYPE svg PUBLIC "-//W3C//DTD SVG 20010904//EN"
 "http://www.w3.org/TR/2001/REC-SVG-20010904/DTD/svg10.dtd">
<svg version="1.0" xmlns="http://www.w3.org/2000/svg"
 width="2566.000000pt" height="2075.000000pt" viewBox="0 0 2566.000000 2075.000000"
 preserveAspectRatio="xMidYMid meet">

<g transform="translate(0.000000,2075.000000) scale(0.100000,-0.100000)"
fill="#000000" stroke="none">
<path d="M6405 20529 c-300 -73 -616 -347 -875 -761 -56 -89 -209 -378 -221
-416 -3 -10 -26 -1 -80 31 -92 55 -149 81 -259 118 -291 100 -648 98 -970 -6
-62 -20 -113 -35 -115 -33 -1 2 -33 48 -70 103 -189 280 -413 513 -623 650
-158 101 -339 166 -471 168 -44 0 -109 -10 -194 -32 -518 -131 -937 -446
-1269 -956 -292 -447 -508 -1057 -629 -1772 -70 -416 -99 -746 -106 -1203 l-5
-355 -44 -122 c-84 -233 -142 -493 -165 -737 -17 -182 -7 -543 20 -711 87
-540 306 -1027 667 -1480 113 -142 407 -436 554 -555 63 -51 116 -95 117 -99
1 -3 -32 -23 -75 -43 -219 -105 -417 -288 -526 -488 -19 -36 -50 -108 -68
-160 -31 -91 -32 -101 -33 -250 0 -166 14 -235 69 -340 l24 -45 -87 -95 c-122
-133 -187 -211 -257 -310 -262 -372 -412 -759 -481 -1240 -24 -171 -24 -637 0
-825 71 -562 266 -1040 584 -1435 37 -47 254 -275 480 -507 227 -232 413 -424
413 -427 0 -3 -15 -29 -34 -58 -124 -195 -201 -440 -212 -682 -6 -122 148
-3240 167 -3380 39 -291 222 -571 484 -741 129 -84 1902 -1001 1991 -1030 250
-82 549 -41 763 104 81 56 168 137 216 205 22 30 43 56 47 56 4 0 65 -39 135
-87 218 -147 380 -212 592 -234 246 -26 514 40 723 177 40 26 119 93 175 149
l102 101 58 -58 c213 -217 460 -313 738 -288 164 15 279 53 407 135 138 89
287 267 340 407 11 29 21 54 23 56 1 2 31 -25 66 -59 298 -288 644 -458 1041
-514 91 -13 207 -16 593 -15 635 1 772 8 894 49 136 46 222 99 326 205 76 76
99 107 138 186 50 102 74 180 84 273 3 32 9 59 13 62 3 2 33 -33 65 -78 73
-101 253 -288 360 -374 262 -210 575 -339 930 -383 50 -6 203 -12 340 -12 216
-1 267 2 370 21 226 41 412 107 597 212 220 126 371 260 616 544 85 99 158
181 161 183 4 1 34 -80 66 -180 95 -292 159 -404 320 -556 107 -100 217 -171
345 -218 148 -56 216 -68 400 -68 147 0 175 3 261 27 125 34 221 79 346 160
l101 65 58 -54 c133 -124 298 -215 469 -261 89 -23 118 -26 270 -26 152 -1
180 2 267 25 53 15 125 39 160 55 79 35 1773 900 1883 961 216 120 392 293
510 501 46 83 968 2090 1011 2201 49 129 67 227 66 370 0 139 -14 220 -61 350
-54 146 -140 279 -256 395 -186 186 -395 280 -677 304 -209 18 -399 -15 -573
-98 -125 -60 -187 -107 -348 -261 -70 -67 -129 -121 -130 -119 -2 2 -20 33
-41 69 l-39 65 915 910 c504 501 944 944 980 985 335 392 528 917 528 1434 l0
129 58 76 c32 42 77 103 99 136 37 55 46 62 102 79 200 63 393 228 481 411 50
103 69 177 77 292 12 190 -46 386 -168 565 l-38 57 10 168 c19 280 4 631 -43
1017 -19 163 -20 179 -5 187 9 5 71 46 139 91 189 124 304 214 484 375 45 40
89 73 98 73 39 0 176 54 244 97 40 25 75 44 76 42 2 -2 11 -20 21 -39 90 -177
269 -366 481 -507 l83 -56 69 61 c207 184 332 361 401 569 17 50 34 119 37
152 4 34 12 65 18 70 6 4 45 11 86 14 262 21 546 181 715 402 l58 75 -39 88
c-116 262 -323 459 -582 552 -55 20 -63 26 -57 44 3 12 17 73 30 137 46 221
53 403 24 599 -15 97 -61 304 -70 314 -10 12 -211 -20 -318 -51 -105 -30 -206
-73 -284 -120 -69 -42 -72 -40 -81 57 -3 38 -17 126 -31 196 -25 123 -25 133
-14 272 14 180 6 746 -14 922 -14 124 -14 125 8 155 123 164 137 396 35 595
-25 49 -95 144 -129 174 -21 19 -21 19 81 78 436 251 666 635 618 1029 -38
318 -230 579 -526 715 -286 133 -634 121 -970 -32 -42 -19 -78 -33 -79 -32 -2
2 -28 35 -59 73 -91 112 -263 281 -366 359 -171 129 -365 213 -550 238 -223
29 -478 -46 -695 -206 -325 -240 -631 -682 -877 -1271 -28 -66 -54 -124 -58
-129 -5 -5 -72 -2 -157 8 -197 21 -487 37 -653 35 l-135 -2 -23 74 c-110 348
-169 509 -252 688 -215 463 -465 768 -750 915 -76 39 -114 53 -257 96 -62 19
-297 8 -396 -19 -242 -64 -479 -209 -717 -438 l-99 -95 -58 35 c-273 164 -576
232 -826 183 l-67 -13 -71 126 c-186 328 -421 630 -726 933 l-138 137 -150
-68 c-604 -272 -1107 -699 -1487 -1266 l-122 -182 -61 19 c-102 33 -334 86
-460 107 -198 32 -390 44 -604 38 -291 -8 -570 -51 -845 -130 l-114 -33 -100
151 c-145 217 -293 397 -481 586 -316 315 -619 525 -1016 704 l-160 72 -65
-59 c-91 -81 -302 -311 -416 -454 -204 -255 -388 -556 -510 -833 l-32 -74 -61
120 c-241 482 -517 846 -831 1096 -290 232 -667 391 -1000 422 -36 3 -74 8
-85 10 -11 2 -56 -6 -100 -16z m290 -311 c719 -141 1304 -792 1675 -1865 l32
-93 -20 -127 c-43 -261 -58 -531 -42 -793 5 -102 13 -200 16 -217 6 -29 -6
-21 -123 95 -71 70 -173 163 -227 207 -83 68 -96 84 -93 104 9 45 -13 299 -38
444 -110 655 -413 1325 -713 1581 -118 101 -224 148 -337 150 -61 1 -79 -3
-138 -32 -154 -76 -293 -275 -403 -579 -68 -186 -128 -461 -149 -675 -4 -38
-10 -68 -13 -68 -4 0 -78 15 -166 33 l-158 33 -34 99 c-44 132 -150 342 -219
433 l-56 74 56 131 c244 572 580 976 895 1078 62 20 98 18 255 -13z m-3900
-143 c198 -50 429 -227 638 -489 84 -105 237 -331 237 -350 0 -6 -40 -39 -89
-74 -157 -111 -305 -262 -406 -415 l-38 -57 -39 102 c-54 144 -137 313 -204
416 -68 104 -198 236 -274 277 -50 27 -64 30 -150 30 -90 0 -100 -2 -171 -37
-267 -132 -506 -547 -653 -1134 -78 -312 -106 -516 -113 -822 l-6 -243 -78
-71 c-171 -155 -387 -414 -541 -647 -48 -74 -90 -137 -93 -139 -13 -13 20 536
45 759 121 1074 453 1928 939 2419 235 237 484 383 786 461 130 33 133 33 210
14z m7143 -289 c405 -255 771 -629 1048 -1071 l63 -99 -127 -52 c-267 -108
-638 -288 -684 -332 -47 -44 -36 -118 22 -142 28 -12 41 -7 247 93 251 121
427 197 615 266 903 330 1670 303 2603 -91 77 -33 249 -113 382 -180 235 -117
243 -120 278 -108 19 6 40 20 45 30 17 32 12 79 -12 103 -46 46 -446 244 -721
357 l-137 57 73 114 c149 234 305 429 497 619 235 235 480 415 765 562 l153
78 110 -117 c285 -304 477 -575 640 -903 135 -273 216 -512 266 -790 36 -205
46 -322 46 -559 0 -287 -24 -516 -86 -831 -35 -174 -33 -170 -51 -134 -148
291 -529 798 -619 820 -55 14 -105 -40 -90 -99 3 -14 24 -47 46 -74 22 -26 78
-95 126 -153 173 -211 367 -529 498 -816 106 -232 172 -408 333 -894 85 -256
179 -527 209 -602 96 -248 212 -457 319 -578 l48 -54 -53 -48 c-37 -33 -60
-46 -72 -42 -10 3 -31 -4 -48 -16 -39 -28 -138 -72 -225 -100 -38 -12 -73 -26
-78 -29 -12 -11 261 -139 353 -165 47 -13 141 -36 210 -51 69 -15 129 -31 134
-36 14 -12 -41 -97 -107 -166 -107 -112 -266 -202 -467 -263 -58 -18 -108 -36
-113 -39 -19 -18 151 -215 251 -292 l33 -26 -98 -80 c-550 -448 -1167 -808
-1853 -1081 -624 -248 -1313 -399 -2020 -443 -205 -13 -753 -7 -935 10 -907
86 -1694 313 -2490 720 -426 217 -785 449 -1174 759 l-143 114 38 31 c84 69
130 116 191 196 35 47 60 88 56 91 -5 4 -55 22 -113 39 -208 65 -362 152 -473
271 -68 72 -115 147 -100 160 4 4 73 22 153 40 80 17 186 45 235 61 109 36
327 145 305 153 -8 3 -73 26 -145 50 -71 25 -146 51 -166 60 -48 20 -149 103
-149 123 0 8 18 36 41 61 150 170 278 444 439 937 277 850 374 1098 560 1430
135 243 282 452 463 657 96 109 111 145 80 187 -25 33 -74 39 -111 14 -40 -26
-189 -187 -281 -303 -101 -126 -245 -341 -312 -466 -42 -77 -54 -93 -60 -78
-9 25 -55 304 -68 419 -132 1098 180 2031 947 2837 l84 88 136 -70 c76 -38
183 -99 240 -134z m-5273 -516 c125 -18 228 -50 340 -105 179 -87 319 -213
433 -388 42 -66 122 -225 122 -244 0 -5 -33 2 -72 16 -65 23 -88 26 -213 25
-127 0 -148 -2 -220 -28 -262 -91 -421 -262 -471 -507 -19 -96 -15 -226 11
-324 43 -165 160 -327 279 -385 171 -84 356 -49 356 69 0 59 -26 77 -109 73
-133 -5 -213 34 -280 137 -59 93 -84 191 -79 320 3 100 6 113 40 182 128 259
472 361 728 216 74 -42 174 -138 226 -218 98 -150 144 -302 151 -499 7 -203
-33 -352 -138 -515 -67 -103 -220 -254 -333 -329 -292 -193 -688 -299 -999
-267 -678 71 -1158 486 -1298 1124 -30 133 -36 362 -15 497 44 277 174 529
381 735 232 231 528 375 860 418 62 8 233 6 300 -3z m13520 -95 c141 -37 306
-149 425 -287 180 -211 350 -534 485 -919 41 -117 115 -365 115 -385 0 -14 -6
-16 -200 -39 -297 -36 -610 -106 -904 -203 -94 -31 -174 -56 -179 -57 -4 0
-27 59 -51 130 -164 486 -389 883 -664 1167 l-74 76 109 109 c221 221 420 349
627 403 89 24 231 25 311 5z m3960 -225 c159 -50 299 -142 461 -304 61 -61
143 -154 183 -206 l73 -94 -24 -19 c-337 -271 -644 -684 -848 -1147 -24 -52
-46 -98 -49 -103 -4 -4 -59 17 -122 47 -302 142 -750 290 -1081 356 -32 6 -58
13 -58 16 0 2 34 84 76 182 322 752 698 1201 1078 1288 83 19 222 11 311 -16z
m-5663 -114 c457 -116 883 -591 1156 -1288 56 -143 112 -307 112 -328 0 -5
-24 -19 -52 -32 -112 -47 -369 -180 -498 -257 -168 -101 -344 -227 -492 -351
l-113 -95 -100 2 c-56 1 -132 9 -170 18 -66 15 -175 58 -175 69 0 2 11 55 24
118 14 62 34 169 46 238 12 68 27 128 33 132 50 33 379 108 475 108 80 0 64
16 -75 74 -76 32 -190 83 -254 113 l-116 55 -6 261 c-9 417 -65 724 -195 1074
l-30 82 61 15 c101 23 258 20 369 -8z m-9709 -83 c38 -19 74 -78 88 -142 16
-75 5 -170 -37 -331 l-36 -136 -239 80 -240 80 7 56 c8 70 57 177 117 256 105
139 234 191 340 137z m-3980 -176 c57 -34 118 -104 158 -182 l31 -60 -24 -99
-24 -100 -168 -72 c-162 -70 -168 -71 -175 -50 -81 217 -86 238 -86 351 0 99
3 114 25 154 57 101 154 122 263 58z m21092 -151 c173 -59 305 -168 376 -310
141 -288 54 -595 -239 -839 -200 -167 -403 -263 -809 -383 -90 -26 -163 -50
-163 -53 0 -4 39 -15 88 -24 113 -23 301 -86 388 -130 175 -88 275 -201 274
-311 -1 -73 -68 -159 -160 -204 -88 -42 -167 -56 -307 -56 l-132 0 -178 175
c-98 96 -239 224 -313 283 -141 112 -386 280 -528 361 -72 41 -82 50 -76 69
13 44 154 328 209 422 151 258 292 441 477 619 143 139 246 215 390 289 187
97 309 127 493 122 109 -3 143 -7 210 -30z m-16674 -143 c32 -19 59 -68 59
-107 0 -46 -29 -99 -78 -146 l-47 -45 -140 63 c-77 34 -153 68 -170 76 l-29
13 59 38 c33 22 97 58 143 82 93 48 152 56 203 26z m-1051 -135 c896 -226
1678 -702 2191 -1334 l57 -69 31 -151 c17 -83 36 -165 41 -183 7 -26 0 -53
-50 -179 -55 -135 -108 -294 -328 -972 -178 -549 -294 -777 -489 -967 -53 -51
-103 -93 -112 -93 -31 0 -255 -61 -328 -89 l-73 -29 -6 27 c-59 278 -300 469
-561 444 -55 -6 -62 0 -40 32 7 11 26 42 41 69 l28 48 -48 -28 c-78 -44 -155
-98 -206 -143 -102 -91 -201 -257 -233 -392 -73 -313 133 -628 440 -672 249
-36 486 124 566 383 l17 55 73 7 c111 11 278 36 432 64 133 24 139 24 167 7
17 -9 30 -20 30 -23 0 -3 -46 -16 -102 -29 -137 -30 -351 -82 -359 -87 -21
-12 42 -206 90 -282 l38 -59 -69 -54 c-89 -68 -156 -142 -180 -197 -19 -41
-17 -82 3 -82 26 0 167 54 283 109 l129 61 61 -39 c34 -22 107 -62 163 -89
l102 -49 -32 -30 c-18 -17 -80 -66 -139 -110 l-107 -80 85 -73 c46 -40 83 -77
82 -81 -2 -4 -51 -46 -110 -92 -623 -493 -1433 -828 -2288 -946 -275 -37 -410
-46 -735 -46 l-320 0 -86 37 c-200 87 -552 150 -933 167 -177 9 -184 10 -301
51 -174 61 -176 62 -240 129 -133 140 -311 223 -532 250 -76 10 -90 15 -180
72 -547 344 -982 810 -1241 1327 -353 706 -384 1466 -91 2204 320 807 1053
1514 2004 1934 l120 53 7 -87 c58 -706 466 -1241 1103 -1445 198 -64 315 -82
530 -82 201 1 275 10 460 60 348 94 675 305 866 558 124 164 202 375 215 580
12 190 -44 444 -136 615 l-40 74 42 -7 c24 -4 113 -25 198 -47z m-3790 -78
c25 -10 78 -36 119 -58 l74 -40 -109 -56 c-60 -30 -132 -68 -160 -85 l-51 -30
-35 24 c-42 28 -68 66 -79 114 -29 129 87 192 241 131z m17590 -670 c688 -43
1311 -204 1886 -489 285 -141 524 -292 770 -488 143 -113 446 -419 554 -557
325 -419 524 -869 594 -1347 9 -59 16 -121 16 -138 l0 -31 -40 25 -39 25 -51
-20 c-323 -127 -644 -669 -764 -1287 -37 -192 -49 -311 -48 -488 0 -149 16
-297 41 -382 9 -32 8 -34 -92 -121 -436 -375 -971 -657 -1572 -827 -931 -263
-2004 -234 -2930 79 -290 98 -499 191 -574 256 -109 94 -259 176 -409 225 -55
18 -207 121 -372 253 -96 77 -470 442 -470 459 0 5 68 63 151 128 172 136 312
254 317 266 2 4 -34 35 -80 68 -139 100 -203 154 -187 159 50 13 274 137 338
188 124 98 221 243 255 379 29 119 41 105 -124 146 -123 30 -145 39 -148 56
-2 11 -20 37 -41 57 l-38 38 90 87 91 88 -90 89 c-210 207 -308 412 -554 1164
-135 410 -141 432 -126 455 39 59 180 220 286 325 298 298 611 516 1031 719
690 334 1521 491 2329 441z m-3752 -1080 c24 -6 76 -14 117 -18 l73 -7 -86
-101 -87 -101 -42 105 c-59 145 -59 145 -36 139 10 -3 37 -11 61 -17z m7496
-397 c10 -65 25 -300 31 -478 l6 -170 -85 163 c-70 136 -133 238 -278 452
l-17 25 92 2 c51 2 124 11 162 22 39 10 73 19 77 20 3 0 9 -16 12 -36z m819
-1650 c35 -224 1 -501 -85 -685 -39 -82 -43 -87 -77 -92 -213 -31 -212 -30
-41 -66 276 -57 527 -177 657 -312 50 -52 113 -146 113 -169 0 -10 -30 -45
-66 -78 -83 -76 -250 -161 -379 -193 -127 -32 -373 -32 -489 0 -44 12 -81 20
-84 18 -7 -8 80 -67 147 -100 l63 -31 -5 -100 c-6 -117 -32 -209 -88 -313 -39
-74 -109 -171 -148 -206 -20 -19 -21 -18 -85 38 -211 185 -317 410 -391 830
-11 58 -21 93 -25 85 -4 -8 -27 -68 -50 -134 -64 -182 -112 -269 -189 -346
-68 -68 -131 -101 -220 -115 l-39 -6 -13 88 c-16 110 -16 347 0 476 47 380
192 791 376 1068 56 84 181 214 237 247 l38 22 16 -24 c44 -67 63 -228 45
-368 -7 -48 -14 -94 -18 -102 -14 -38 36 7 160 144 222 243 312 321 442 388
45 24 170 72 186 73 4 0 9 -17 12 -37z m-16282 -1917 c247 -178 559 -370 844
-521 l109 -58 -94 -32 c-236 -79 -428 -215 -550 -387 l-48 -68 -42 71 c-91
153 -237 287 -404 371 -45 22 -84 45 -87 50 -3 5 -9 73 -12 151 -4 78 -16 221
-27 317 -11 96 -20 182 -20 190 0 9 21 32 47 52 l48 37 45 -35 c25 -18 111
-81 191 -138z m-607 -186 c9 -85 19 -215 22 -288 l7 -132 -124 6 c-268 14
-534 -59 -735 -201 -93 -67 -205 -191 -252 -282 -53 -103 -74 -178 -81 -292
l-6 -93 -90 -27 c-103 -31 -250 -91 -311 -127 l-41 -24 -104 34 c-144 48 -239
60 -432 53 -170 -6 -244 -19 -381 -71 -38 -15 -70 -25 -71 -24 -2 2 -55 127
-120 278 -139 326 -168 385 -228 466 l-45 62 156 6 c501 20 833 63 1232 162
548 136 1103 376 1523 659 52 35 52 35 59 13 4 -13 14 -93 22 -178z m8767 15
l107 -110 -15 -80 -15 -81 -83 -42 c-107 -55 -198 -124 -270 -205 l-56 -65
-71 -6 -70 -7 -72 68 c-77 75 -139 120 -229 169 l-57 30 157 90 c182 104 387
231 488 302 39 28 72 49 75 48 3 0 53 -50 111 -111z m-14141 -65 c235 -25 410
-129 491 -295 33 -68 34 -73 34 -190 0 -113 -2 -124 -33 -195 -173 -402 -741
-622 -1157 -449 -324 135 -399 481 -169 780 141 184 401 322 659 349 38 4 72
8 75 8 3 1 48 -3 100 -8z m14603 -207 c23 -19 25 -23 10 -23 -10 0 -35 -3 -56
-7 -38 -6 -38 -6 -32 23 4 16 9 35 11 43 5 14 4 15 67 -36z m-7273 -198 c25
-14 24 -14 -17 -15 -40 0 -52 8 -36 23 10 10 25 8 53 -8z m7564 -76 c177 -37
322 -115 452 -244 73 -72 99 -105 127 -165 94 -198 66 -383 -82 -530 -194
-193 -538 -251 -856 -144 -347 116 -572 402 -525 666 22 121 82 217 183 294
182 137 429 180 701 123z m-1834 -48 c298 -88 474 -317 431 -561 -54 -299
-389 -537 -786 -557 -312 -16 -584 115 -691 333 -65 130 -58 271 19 419 39 73
170 207 249 253 91 54 213 103 306 123 122 26 363 21 472 -10z m-7639 -76
c231 -49 422 -182 506 -352 37 -76 38 -79 38 -192 0 -114 -1 -117 -39 -195
-133 -273 -528 -436 -897 -371 -182 32 -318 96 -434 206 -358 341 -92 839 490
918 85 12 245 5 336 -14z m2674 -80 c464 -142 1007 -240 1533 -275 195 -13
641 -13 837 0 424 28 840 93 1238 194 92 23 167 41 167 39 0 -1 -13 -24 -30
-51 -121 -197 -129 -463 -19 -659 16 -29 28 -53 26 -53 -2 0 -44 23 -93 51
-249 145 -544 238 -843 269 -226 22 -547 6 -734 -39 l-77 -18 -98 33 c-130 45
-243 54 -660 54 -265 0 -349 -3 -410 -16 -144 -29 -289 -104 -393 -201 l-50
-46 -77 40 c-42 22 -99 48 -127 57 l-50 16 -2 98 c-2 178 -67 323 -209 470
-44 46 -73 81 -65 79 9 -3 70 -21 136 -42z m-669 24 c284 -50 513 -227 570
-443 69 -260 -131 -533 -471 -639 -260 -81 -562 -47 -780 88 -194 121 -298
314 -267 498 41 236 259 423 573 492 77 16 292 19 375 4z m12443 -224 c12 -99
26 -241 31 -315 12 -169 13 -670 1 -670 -5 0 -33 16 -62 35 -195 132 -455 203
-703 192 -189 -8 -349 -56 -479 -145 l-44 -31 -89 60 c-275 186 -662 322
-1014 358 -509 51 -790 35 -1135 -66 -264 -77 -553 -229 -774 -407 -45 -37
-84 -66 -85 -64 -2 2 -8 18 -16 36 -7 18 -36 68 -65 112 l-52 79 56 37 c128
85 240 230 284 369 31 100 31 312 0 400 -12 33 -21 61 -19 62 1 1 55 -18 121
-43 417 -158 912 -265 1404 -303 172 -14 629 -14 797 -1 600 47 1215 207 1690
440 66 31 122 55 125 51 4 -3 16 -87 28 -186z m-18444 115 c326 -49 465 -97
548 -190 58 -64 84 -119 104 -217 20 -97 8 -224 -30 -307 -51 -110 -160 -198
-305 -243 -72 -22 -95 -25 -170 -20 -56 3 -114 15 -162 32 -315 110 -623 97
-906 -40 -268 -130 -516 -406 -645 -718 -76 -185 -109 -364 -109 -589 0 -468
146 -842 445 -1143 305 -305 690 -430 1079 -349 105 21 157 40 297 105 147 68
224 84 332 69 140 -20 249 -72 326 -155 84 -92 115 -189 109 -354 -3 -105 -6
-122 -35 -182 -73 -157 -178 -221 -498 -304 -273 -72 -537 -105 -828 -105
-518 0 -907 78 -1272 254 -230 111 -386 219 -564 391 -358 345 -563 773 -637
1330 -22 162 -25 557 -6 690 60 421 192 754 425 1065 72 98 319 357 360 379
19 10 36 8 97 -9 95 -28 320 -38 442 -20 240 35 482 154 656 324 82 79 177
207 207 279 13 32 19 36 62 42 27 4 53 8 58 11 6 2 116 2 245 0 169 -4 274
-11 375 -26z m12365 -310 c0 -10 11 -54 25 -97 68 -214 255 -417 496 -538 50
-25 97 -45 105 -45 10 0 14 -15 14 -55 l0 -55 63 0 c226 -1 336 -36 437 -139
73 -75 111 -154 118 -242 9 -127 -30 -233 -118 -319 -105 -104 -200 -132 -407
-123 l-130 6 -7 -104 c-20 -334 -37 -847 -33 -994 9 -298 64 -423 243 -547 44
-30 86 -69 104 -96 90 -135 79 -321 -32 -542 -65 -129 -160 -234 -254 -277
-120 -56 -366 -38 -560 41 -313 127 -524 413 -627 851 -67 283 -78 551 -48
1192 12 249 21 470 21 491 l0 39 -75 6 c-144 11 -276 101 -341 232 -25 52 -29
74 -32 160 -5 132 16 191 99 279 92 98 201 146 334 146 l55 0 0 38 c0 37 3 40
73 85 142 90 263 221 333 359 36 71 74 195 74 240 0 22 5 27 28 30 35 5 42 1
42 -22z m-4190 -599 c193 -6 219 -9 256 -28 67 -35 101 -70 133 -135 l31 -61
0 36 c0 34 4 39 48 61 69 35 200 74 310 93 138 23 452 23 587 -1 464 -84 844
-344 1119 -769 206 -317 297 -712 256 -1118 -32 -307 -120 -557 -287 -809
-105 -158 -323 -377 -476 -479 -241 -159 -470 -237 -765 -261 -278 -22 -640
36 -797 129 l-33 19 -6 -37 c-3 -20 -6 -180 -7 -356 -1 -486 -11 -665 -41
-746 -124 -334 -519 -484 -848 -323 -138 68 -267 223 -305 369 -21 81 -20 237
10 2390 21 1492 28 1807 40 1843 28 83 98 149 188 178 48 14 250 16 587 5z
m-5031 -95 c46 -30 117 -69 159 -87 75 -31 247 -79 283 -79 27 0 25 -21 -21
-275 -53 -289 -73 -346 -142 -412 -57 -55 -89 -62 -254 -61 -170 1 -231 -13
-342 -79 -76 -45 -203 -175 -251 -257 -47 -79 -95 -211 -123 -336 -21 -97 -23
-128 -23 -400 1 -302 9 -409 56 -728 41 -285 12 -412 -132 -566 -123 -131
-258 -190 -439 -190 -164 0 -302 52 -412 157 -115 110 -164 213 -178 376 -5
58 -26 605 -46 1216 -30 877 -35 1123 -26 1175 33 190 195 374 390 442 58 20
86 23 212 23 126 0 154 -3 213 -23 86 -30 172 -87 236 -158 28 -31 51 -51 51
-46 0 20 115 124 194 177 45 29 120 70 166 90 82 35 284 94 326 95 11 0 58
-25 103 -54z m3490 -21 c185 -49 343 -216 382 -402 25 -123 14 -171 -149 -653
-83 -245 -326 -967 -542 -1605 -231 -685 -409 -1197 -435 -1251 -206 -429
-624 -756 -1072 -838 -236 -44 -545 -22 -733 52 -204 79 -303 206 -317 406
-11 165 51 297 189 401 71 53 152 80 285 94 169 18 272 69 349 173 77 105 112
229 121 428 5 129 4 140 -26 252 -105 394 -362 1039 -787 1974 -68 151 -132
305 -140 342 -29 123 -2 257 76 377 57 88 74 100 159 113 90 15 202 52 301 99
63 30 84 36 133 34 113 -4 253 -65 341 -149 89 -85 96 -102 401 -999 160 -468
291 -850 292 -849 1 1 48 161 103 356 211 740 383 1317 408 1367 33 68 42 75
132 97 129 31 306 113 381 175 29 24 74 26 148 6z m4234 -25 c4 -3 1 -14 -6
-23 -11 -16 -16 -14 -52 23 l-40 42 45 -18 c25 -9 48 -20 53 -24z m7027 -55
c521 -79 884 -541 710 -902 -63 -127 -213 -234 -380 -269 -106 -22 -316 -15
-425 15 -399 110 -687 452 -637 756 34 207 200 354 451 399 101 19 166 19 281
1z m-2071 -40 c249 -17 354 -31 500 -71 182 -49 386 -145 532 -250 l79 -57 0
-72 c0 -152 75 -343 194 -491 94 -117 207 -209 354 -288 88 -47 86 -44 124
-219 19 -89 22 -132 22 -332 0 -197 -3 -247 -22 -348 -74 -393 -261 -723 -557
-988 -356 -319 -727 -468 -1175 -472 -523 -5 -885 77 -1198 271 -352 219 -648
591 -772 970 -141 435 -107 945 91 1348 214 437 650 804 1112 938 116 34 241
57 357 66 52 4 103 8 112 9 10 0 121 -6 247 -14z m-13066 -3759 c168 -50 303
-133 428 -263 137 -142 220 -304 248 -483 6 -36 47 -783 92 -1660 90 -1782 89
-1694 23 -1829 -49 -99 -162 -215 -254 -260 -119 -57 -260 -74 -391 -47 -198
42 -379 222 -418 416 -9 43 -121 2144 -121 2263 0 17 -2 28 -5 26 -2 -3 -122
-502 -265 -1110 -143 -607 -269 -1130 -280 -1162 -90 -271 -360 -489 -660
-537 -397 -62 -793 159 -927 517 -16 43 -189 543 -383 1110 -195 568 -355
1031 -356 1030 -2 -1 22 -504 53 -1116 47 -918 55 -1127 46 -1188 -28 -192
-178 -368 -371 -435 -95 -33 -288 -32 -377 0 -190 71 -340 247 -365 432 -6 41
-47 795 -91 1675 -69 1370 -79 1611 -69 1679 29 204 116 375 267 529 127 129
277 216 449 259 75 19 116 22 254 22 190 0 266 -16 408 -84 217 -104 370 -253
461 -452 21 -45 215 -597 432 -1225 217 -629 396 -1143 399 -1143 3 0 129 539
281 1198 189 819 286 1222 308 1277 83 205 257 393 461 495 159 79 267 101
480 96 131 -3 168 -8 243 -30z m5891 -820 c185 -62 414 -190 564 -315 l63 -53
47 20 c89 38 245 83 361 104 102 19 148 22 391 21 373 -2 501 -19 730 -96
l126 -42 79 63 c223 177 532 323 719 339 83 7 102 -2 131 -58 20 -38 51 -170
67 -279 16 -117 17 -759 0 -963 -10 -129 -9 -142 9 -195 117 -331 114 -779 -7
-1141 -142 -428 -495 -825 -919 -1035 -299 -148 -557 -194 -1005 -176 -301 12
-471 44 -677 126 -327 131 -627 380 -835 691 -272 406 -358 938 -232 1439 l27
109 -12 175 c-46 660 -11 1156 91 1286 21 26 23 27 100 21 49 -4 118 -19 182
-41z m-2406 -267 c415 -45 770 -218 1076 -524 192 -193 342 -433 419 -670 74
-231 100 -523 56 -641 -43 -113 -151 -208 -274 -238 -49 -12 -259 -17 -1190
-26 -621 -7 -1131 -13 -1132 -14 -1 -1 8 -22 20 -46 12 -25 54 -77 92 -116
106 -108 231 -185 380 -235 l70 -24 685 0 c671 -1 686 -1 742 -22 109 -41 204
-126 258 -233 35 -69 42 -104 42 -193 -2 -220 -155 -403 -372 -445 -67 -13
-483 -22 -1045 -23 -444 -1 -536 6 -717 52 -571 144 -1065 599 -1242 1143 -66
200 -97 480 -77 691 28 291 113 532 270 766 305 455 777 742 1312 798 122 12
514 13 627 0z m6726 -289 c152 -39 256 -121 320 -252 24 -50 87 -258 202 -668
155 -558 263 -952 265 -968 0 -4 20 56 45 133 25 77 133 409 239 737 106 329
206 620 221 648 74 136 231 243 396 270 89 14 285 -2 368 -30 82 -27 187 -97
240 -158 92 -107 96 -118 249 -902 77 -393 143 -733 147 -755 4 -22 9 -44 12
-49 2 -5 25 40 49 100 234 572 542 1315 573 1382 67 142 180 241 315 277 77
20 252 20 329 0 155 -41 274 -140 347 -291 39 -81 44 -97 47 -180 2 -50 -1
-115 -7 -144 -10 -48 -885 -1973 -987 -2170 -77 -151 -183 -256 -342 -338
-124 -65 -211 -85 -367 -85 -100 0 -148 5 -210 22 -253 67 -463 258 -544 493
-10 29 -51 206 -91 393 -40 187 -76 343 -79 347 -3 4 -57 -142 -120 -325 -63
-183 -132 -368 -155 -412 -66 -129 -197 -255 -341 -328 -104 -52 -173 -69
-309 -74 -149 -7 -235 5 -347 48 -188 72 -364 238 -438 414 -26 63 -695 2143
-722 2244 -46 178 -4 329 132 475 73 78 149 126 240 150 80 22 231 20 323 -4z"/>
<path d="M10262 14413 c17 -32 38 -67 45 -78 25 -37 17 -41 -79 -41 -266 1
-491 -176 -558 -440 -78 -305 79 -619 363 -723 77 -29 218 -38 300 -21 255 53
457 311 457 585 0 157 -69 325 -179 435 -37 36 -83 89 -103 116 -20 28 -59 71
-87 97 -49 46 -166 127 -183 127 -4 0 6 -26 24 -57z"/>
<path d="M14032 14430 c-78 -50 -139 -106 -194 -178 -24 -31 -72 -86 -108
-122 -185 -187 -229 -466 -113 -710 70 -146 236 -279 390 -310 85 -18 223 -8
304 22 174 64 316 225 364 413 18 69 20 211 4 287 -6 29 -29 91 -51 138 -32
68 -56 100 -117 160 -118 116 -230 163 -393 164 -54 0 -98 2 -98 5 0 2 20 42
45 88 25 46 41 83 37 83 -5 0 -37 -18 -70 -40z"/>
<path d="M12172 13930 c-118 -53 -166 -136 -131 -227 14 -39 64 -88 110 -108
l39 -18 -22 -25 c-39 -41 -98 -65 -174 -70 -85 -5 -129 7 -185 54 -42 35 -76
43 -97 22 -36 -36 8 -101 98 -147 144 -71 326 -39 438 78 l44 46 57 -56 c76
-75 145 -102 261 -103 73 -1 93 3 145 27 75 35 125 82 125 117 0 54 -44 65
-94 23 -97 -82 -251 -85 -353 -7 -18 14 -33 29 -33 33 0 4 18 16 39 26 103 46
146 146 102 233 -25 48 -44 65 -111 96 -72 34 -192 36 -258 6z"/>
<path d="M2780 14535 c0 -3 20 -33 45 -67 25 -34 45 -65 45 -68 0 -3 -15 -4
-34 -2 -59 7 -172 -18 -247 -54 -52 -25 -91 -54 -138 -102 -284 -290 -173
-783 206 -913 54 -19 87 -23 163 -22 151 2 254 47 363 161 97 103 147 231 147
380 0 107 -12 156 -65 267 -80 165 -195 277 -385 374 -55 29 -100 49 -100 46z"/>
<path d="M4635 14143 c-124 -45 -176 -128 -137 -216 22 -48 40 -66 96 -95 l40
-19 -34 -31 c-60 -55 -164 -77 -241 -50 -19 6 -53 24 -75 40 -35 25 -45 28
-63 19 -48 -26 -16 -87 70 -133 38 -20 58 -23 144 -23 96 0 103 1 165 36 37
20 78 53 95 75 l30 39 39 -39 c62 -62 135 -90 236 -91 68 0 95 5 135 23 67 31
115 78 115 114 0 51 -52 58 -90 13 -29 -35 -93 -59 -161 -59 -54 0 -74 5 -119
30 -30 17 -55 35 -57 41 -2 6 10 16 27 23 43 18 98 83 106 125 5 27 1 46 -17
82 -47 91 -191 136 -304 96z"/>
<path d="M17960 13895 c0 -2 16 -33 35 -69 l36 -64 -65 5 c-224 18 -441 -131
-518 -355 -32 -94 -32 -248 1 -342 110 -314 443 -441 723 -277 24 14 72 55
105 91 98 104 143 217 143 361 0 104 -19 177 -75 292 -56 115 -158 223 -287
307 -82 54 -98 62 -98 51z"/>
<path d="M21464 13661 c-216 -105 -357 -265 -418 -472 -20 -67 -21 -207 -1
-284 65 -247 317 -418 555 -376 357 64 543 489 349 796 -99 157 -247 245 -412
245 l-69 0 24 33 c13 17 37 49 52 70 16 20 26 37 24 37 -3 0 -49 -22 -104 -49z"/>
<path d="M19635 13341 c-22 -10 -55 -35 -74 -56 -31 -35 -33 -42 -29 -92 5
-58 35 -100 93 -130 l29 -16 -33 -27 c-80 -67 -207 -64 -290 7 -45 38 -75 42
-91 13 -13 -24 -4 -43 37 -82 49 -47 119 -72 203 -72 66 -1 85 4 142 32 37 18
78 46 91 61 l24 29 37 -43 c41 -50 136 -101 207 -110 65 -9 150 11 206 48 42
28 48 36 48 67 0 48 -31 51 -91 11 -92 -60 -204 -50 -286 26 l-27 26 50 24
c184 92 90 303 -136 303 -46 0 -84 -7 -110 -19z"/>
<path d="M12623 9496 c-180 -42 -285 -136 -338 -306 -15 -47 -19 -125 -27
-517 -9 -458 -9 -462 12 -503 59 -115 222 -222 402 -265 83 -19 235 -19 317 1
107 26 223 86 271 141 72 82 125 191 167 343 15 53 18 103 17 280 0 253 -11
311 -95 477 -84 169 -212 288 -356 333 -87 27 -285 35 -370 16z"/>
<path d="M19355 9254 c-11 -2 -45 -9 -75 -15 -80 -16 -205 -79 -282 -143 -143
-119 -245 -280 -290 -461 -31 -126 -31 -353 1 -470 113 -417 481 -668 843
-576 258 66 469 282 554 566 22 76 27 115 31 250 5 139 2 172 -16 247 -60 253
-233 469 -443 555 -98 40 -248 62 -323 47z"/>
<path d="M13640 4435 c-133 -36 -277 -134 -379 -257 -76 -92 -147 -242 -171
-358 -24 -118 -26 -286 -4 -401 53 -284 257 -531 511 -620 75 -27 239 -36 325
-20 265 52 498 291 574 590 116 452 -89 904 -474 1049 -56 21 -88 26 -197 28
-93 3 -146 0 -185 -11z"/>
<path d="M9485 4450 c-136 -22 -259 -74 -377 -162 -78 -57 -172 -157 -206
-216 l-22 -40 607 4 c335 3 659 7 720 10 l113 6 -15 28 c-47 91 -178 208 -315
283 -136 75 -349 111 -505 87z"/>
</g>
</svg>
